HIERARCHY
ROOT ui
{
	 OFFSET 0 0 0
	 CHANNELS 3 XPosition YPosition Z Position
	 EndSite
	 {
	 OFFSET 0 -1 0
	 }
}
ROOT li
{
	 OFFSET 0 0 0
	 CHANNELS 3 XPosition YPosition Z Position
	 EndSite
	 {
	 OFFSET 0 -1 0
	 }
}
ROOT ul
{
	 OFFSET 0 0 0
	 CHANNELS 3 XPosition YPosition Z Position
	 EndSite
	 {
	 OFFSET 0 -1 0
	 }
}
ROOT ll
{
	 OFFSET 0 0 0
	 CHANNELS 3 XPosition YPosition Z Position
	 EndSite
	 {
	 OFFSET 0 -1 0
	 }
}
ROOT tt
{
	 OFFSET 0 0 0
	 CHANNELS 3 XPosition YPosition Z Position
	 EndSite
	 {
	 OFFSET 0 -1 0
	 }
}
ROOT tb
{
	 OFFSET 0 0 0
	 CHANNELS 3 XPosition YPosition Z Position
	 EndSite
	 {
	 OFFSET 0 -1 0
	 }
}
ROOT td
{
	 OFFSET 0 0 0
	 CHANNELS 3 XPosition YPosition Z Position
	 EndSite
	 {
	 OFFSET 0 -1 0
	 }
}
ROOT v
{
	 OFFSET 0 0 0
	 CHANNELS 3 XPosition YPosition Z Position
	 EndSite
	 {
	 OFFSET 0 -1 0
	 }
}
ROOT bn
{
	 OFFSET 0 0 0
	 CHANNELS 3 XPosition YPosition Z Position
	 EndSite
	 {
	 OFFSET 0 -1 0
	 }
}
MOTION
Frames: 29
Frame Time: 0.002
-0.0018955199718475341	6.539710164070129E-4	0		0.4378040771484375	-2.428985595703125	0		-1.035497314453125	-0.08718798828125	0		-0.717640869140625	-2.325777099609375	0		1.6095179443359375	-0.710212890625	0		3.34183837890625	-0.28393130493164065	0		4.67314990234375	-0.21603762817382813	0		5.625498046875	0.15819363403320313	0		-0.039337715148925784	5.99410302734375	0		
0.0016707010269165039	0.00430994176864624	0		0.4595870361328125	-2.41960693359375	0		-1.032794189453125	-0.07556753540039063	0		-0.784834228515625	-2.3139814453125	0		1.612119384765625	-0.7064608764648438	0		3.3415185546875	-0.27404495239257814	0		4.68364306640625	-0.2172663116455078	0		5.63398974609375	0.158044921875	0		-0.042066307067871095	5.9978564453125	0		
0.0011737539768218994	0.004028932094573974	0		0.4551423645019531	-2.423799072265625	0		-1.042401611328125	-0.08274923706054688	0		-0.7282923583984375	-2.319241455078125	0		1.62552294921875	-0.7148936767578125	0		3.296843017578125	-0.2854353942871094	0		4.663208984375	-0.21398991394042968	0		5.624486328125	0.15818626403808594	0		-0.040135673522949215	5.98052587890625	0		
-0.003380268096923828	-1.8903599679470062E-4	0		0.4547689819335938	-2.424061767578125	0		-1.04288623046875	-0.08308318328857422	0		-0.8025783081054687	-2.313342529296875	0		1.625068359375	-0.7151008911132812	0		3.327347412109375	-0.28707357788085935	0		4.65863232421875	-0.21998617553710936	0		5.618859375	0.15025239562988282	0		-0.025729143142700195	5.9909912109375	0		
-0.003854933023452759	-4.7698700428009034E-4	0		0.45235678100585935	-2.42729541015625	0		-1.0433570556640626	-0.08341893005371094	0		-0.7191549682617188	-2.327044921875	0		1.6246265869140626	-0.71531396484375	0		3.295906494140625	-0.285699462890625	0		4.66711767578125	-0.22320713806152342	0		5.613509765625	0.15830397033691407	0		-0.05957335662841797	5.9852451171875	0		
-0.004309619903564453	-7.686010003089905E-4	0		0.43596194458007814	-2.430304443359375	0		-1.0378907470703125	-0.08885389709472656	0		-0.7805154418945313	-2.327368896484375	0		1.6072711181640624	-0.7112560424804687	0		3.32057568359375	-0.2792561645507812	0		4.66591845703125	-0.2082787628173828	0		5.623046875	0.15809588623046875	0		-0.07919073486328125	5.99126123046875	0		
-6.7255699634552E-4	0.002869968891143799	0		0.482727294921875	-2.425350341796875	0		-1.0442322998046876	-0.08409523010253907	0		-0.762603515625	-2.312992919921875	0		1.626870361328125	-0.7118110961914063	0		3.318208740234375	-0.2763807373046875	0		4.66625390625	-0.223393798828125	0		5.617482421875	0.15011785888671875	0		-0.06096902465820313	5.98465283203125	0		
-0.0010657850503921508	0.002570231914520264	0		0.45343325805664064	-2.425158447265625	0		-1.0446221923828125	-0.08443594360351563	0		-0.727991943359375	-2.318892333984375	0		1.6434215087890625	-0.7173232421875	0		3.342937255859375	-0.26995849609375	0		4.66101708984375	-0.21443003845214845	0		5.61708349609375	0.15003868103027343	0		-0.028503707885742188	5.9898125	0		
0.020515586853027342	-0.002091758966445923	0		0.47808709716796877	-2.430852294921875	0		-1.0449696044921875	-0.0847790756225586	0		-0.7302896728515625	-2.321191162109375	0		1.6172144775390624	-0.7101459350585938	0		3.30443896484375	-0.2795213928222656	0		4.66067431640625	-0.21456369018554688	0		5.61259765625	0.14200621032714844	0		-0.04523468017578125	5.97976806640625	0		
-0.005782105922698975	-0.001980064034461975	0		0.4239568481445313	-2.425271484375	0		-1.0452679443359374	-0.08512547302246094	0		-0.7674583129882813	-2.3179267578125	0		1.6428204345703126	-0.7178226928710938	0		3.304147216796875	-0.2797198181152344	0		4.66523388671875	-0.22379592895507813	0		5.6164208984375	0.1498203582763672	0		-0.047479438781738284	5.99548583984375	0		
0.02488614273071289	-0.007799259185791016	0		0.4527817077636719	-2.426045654296875	0		-1.0395938720703124	-0.09057215118408203	0		-0.7797771606445313	-2.32707275390625	0		1.6056817626953126	-0.71249072265625	0		3.33603466796875	-0.2724539794921875	0		4.67396044921875	-0.22611398315429687	0		5.61616943359375	0.1496773681640625	0		-0.08105409240722657	5.9867021484375	0		
0.008876479148864747	0.0031341400146484375	0		0.42977590942382815	-2.418986572265625	0		-1.0325233154296876	-0.0750409927368164	0		-0.7487442626953125	-2.317921630859375	0		1.6516029052734376	-0.7075147705078125	0		3.326885986328125	-0.2705399475097656	0		4.66405322265625	-0.2091483459472656	0		5.6159755859375	0.1495099182128906	0		-0.0482701416015625	5.9948408203125	0		
0.023692562103271485	-4.3806299567222595E-4	0		0.45258624267578124	-2.426677001953125	0		-1.045830810546875	-0.0861859359741211	0		-0.8027650146484375	-2.314399658203125	0		1.6253934326171875	-0.7133841552734375	0		3.29169921875	-0.27422299194335936	0		4.6646826171875	-0.22437799072265624	0		5.61170947265625	0.1413835906982422	0		-0.06374345779418945	5.9827529296875	0		
-0.0023694589138031005	6.454529762268067E-4	0		0.4255923156738281	-2.424568359375	0		-1.0459105224609375	-0.08654425811767578	0		-0.7309193115234375	-2.322912353515625	0		1.6404058837890625	-0.7089278564453125	0		3.31657177734375	-0.2778912353515625	0		4.66460595703125	-0.22461428833007813	0		5.611625	0.1411675262451172	0		-0.03184415435791016	5.9888984375	0		
-0.006470277786254883	-0.0036300249099731445	0		0.4525632019042969	-2.42733544921875	0		-1.0459459228515624	-0.08690338897705079	0		-0.8048244018554688	-2.317074951171875	0		1.6053056640625	-0.713674560546875	0		3.2974619140625	-0.2828655090332031	0		4.65971826171875	-0.21579159545898438	0		5.6115859375	0.14092787170410156	0		-0.09818931579589844	5.9766220703125	0		
-0.0024069859981536864	-3.8699999451637266E-5	0		0.4276813659667969	-2.422271240234375	0		-1.0400264892578126	-0.09235809326171875	0		-0.752894775390625	-2.32426611328125	0		1.6253128662109375	-0.7143168334960938	0		3.3106728515625	-0.27037237548828125	0		4.6466904296875	-0.21785856628417968	0		5.61571142578125	0.14859988403320312	0		-0.048993057250976565	5.993486328125	0		
-0.002378959894180298	-3.8444399833679197E-4	0		0.45468429565429686	-2.4260458984375	0		-1.0368048095703124	-0.08076502227783203	0		-0.7877562866210938	-2.31905810546875	0		1.6114791259765624	-0.706420654296875	0		3.316574462890625	-0.2787771301269531	0		4.65975146484375	-0.21636245727539063	0		5.611609375	0.1403812255859375	0		-0.08312297058105468	5.9876875	0		
-0.0023291680812835692	-7.305769920349122E-4	0		0.45475274658203124	-2.426388427734375	0		-1.04586572265625	-0.08797359466552734	0		-0.7287283935546875	-2.322358154296875	0		1.640482421875	-0.710219970703125	0		3.3298173828125	-0.26730816650390626	0		4.6368056640625	-0.2163031463623047	0		5.6068037109375	0.149157470703125	0		-0.06520191955566407	5.98205224609375	0		
-0.002263808012008667	-0.0010753380060195923	0		0.4527976379394531	-2.42869873046875	0		-1.045800048828125	-0.0883232650756836	0		-0.802562255859375	-2.31651806640625	0		1.640551025390625	-0.7105570068359375	0		3.310822265625	-0.2713315124511719	0		4.66472412109375	-0.22607470703125	0		5.61172314453125	0.1397599334716797	0		-0.06516469573974609	5.98170703125	0		
-0.006252164840698242	-0.005351953983306885	0		0.452878173828125	-2.4290390625	0		-1.0457244873046876	-0.08866686248779297	0		-0.7207174072265625	-2.332176513671875	0		1.619646728515625	-0.7095577392578125	0		3.295900146484375	-0.2714249267578125	0		4.64281884765625	-0.22505294799804687	0		5.6117978515625	0.1394304656982422	0		-0.048927406311035156	5.99210693359375	0		
-0.002107775926589966	-0.001752195954322815	0		0.4300741882324219	-2.422006103515625	0		-1.0305975341796876	-0.08624363708496094	0		-0.7874514770507812	-2.320437255859375	0		1.631741943359375	-0.7090861206054687	0		3.328105224609375	-0.2642754821777344	0		4.63910888671875	-0.21232591247558594	0		5.6111357421875	0.15510891723632814	0		-0.04887879943847656	5.98977197265625	0		
0.005085793972015381	0.004808019161224366	0		0.43421575927734374	-2.41839794921875	0		-1.0323868408203125	-0.07853719329833984	0		-0.7952117919921875	-2.310635009765625	0		1.6348704833984375	-0.7064639892578125	0		3.319219970703125	-0.26246337890625	0		4.664203125	-0.21206214904785156	0		5.62195947265625	0.13859808349609376	0		-0.04973802947998047	5.99246142578125	0		
-0.001945922017097473	-0.0023926360607147215	0		0.4302242431640625	-2.422648681640625	0		-1.0482088623046875	-0.0725916748046875	0		-0.7971710815429688	-2.312914306640625	0		1.6459788818359375	-0.7049600830078125	0		3.30022119140625	-0.26748187255859374	0		4.64130126953125	-0.21102137756347655	0		5.612041015625	0.13842710876464845	0		-0.04963940811157227	5.9921474609375	0		
-0.0018719719648361206	-0.002690880060195923	0		0.45520428466796875	-2.428349853515625	0		-1.0362974853515625	-0.08307701110839844	0		-0.7631917724609375	-2.3187548828125	0		1.6260684814453126	-0.703944091796875	0		3.30339013671875	-0.26184320068359374	0		4.6372626953125	-0.2182742462158203	0		5.6021494140625	0.14026536560058595	0		-0.06569852447509765	5.98210791015625	0		
-0.006742495059967041	0.0011099289655685425	0		0.40034378051757813	-2.422747802734375	0		-1.040281005859375	-0.08628602600097657	0		-0.800086181640625	-2.315435546875	0		1.62612939453125	-0.7042315673828125	0		3.324322021484375	-0.2704759216308594	0		4.6352939453125	-0.22054486083984376	0		5.60218212890625	0.13795761108398438	0		-0.05042816925048828	5.99258642578125	0		
-0.0017552269697189331	-0.003226063013076782	0		0.4324098815917969	-2.42152099609375	0		-1.0321177978515625	-0.07966564178466796	0		-0.78511376953125	-2.319927734375	0		1.609260009765625	-0.6992244262695313	0		3.31948583984375	-0.2636719970703125	0		4.6455849609375	-0.20599087524414061	0		5.61223388671875	0.13750788879394532	0		-0.049357101440429686	5.99131494140625	0		
4.594019949436188E-4	0.0075110578536987304	0		0.42461041259765625	-2.410625732421875	0		-1.032080322265625	-0.07988837432861329	0		-0.7929286499023438	-2.310024658203125	0		1.63232275390625	-0.697834228515625	0		3.31249072265625	-0.2658094787597656	0		4.634623046875	-0.20607270812988282	0		5.60741845703125	0.1463222198486328	0		-0.017156530380249023	5.99856982421875	0		
4.8167300224304197E-4	0.007312231063842774	0		0.4505323486328125	-2.416245361328125	0		-1.0379774169921876	-0.07498423004150391	0		-0.7949541015625	-2.312185546875	0		1.6292923583984376	-0.7009955444335938	0		3.34170068359375	-0.2544992370605469	0		4.66939794921875	-0.22186454772949218	0		5.6174404296875	0.14592416381835938	0		-0.051185531616210936	5.9929189453125	0		
-0.0016898870468139648	-0.003819804906845093	0		0.42052349853515625	-2.415931396484375	0		-1.047955322265625	-0.07398127746582031	0		-0.7220560302734375	-2.31852001953125	0		1.649273681640625	-0.7024952392578125	0		3.30356396484375	-0.26307672119140624	0		4.62468115234375	-0.20434255981445312	0		5.61230224609375	0.13679837036132814	0		-0.06729462432861329	5.9830126953125	0		
